<?xml version="1.0" encoding="UTF-8"?><svg id="a" xmlns="http://www.w3.org/2000/svg" xmlns:xlink="http://www.w3.org/1999/xlink" viewBox="0 0 1024 1024"><defs><style>.c{fill:#9f9490;}.c,.d,.e,.f,.g,.h,.i,.j,.k,.l,.m,.n,.o,.p,.q,.r{stroke-width:0px;}.d{fill:#fbfbfd;}.e{fill:#d8cdc9;}.f{fill:#9e99c2;}.g{fill:#9e7571;}.h{fill:#f3c3c1;}.i{fill:#a17477;}.j{fill:none;}.s{clip-path:url(#b);}.k{fill:#a3787f;}.l{fill:#9a6766;}.m{fill:#b0565f;}.n{fill:#fcecd3;}.o{fill:#a17a75;}.p{fill:#996b78;}.q{fill:#bf8e8a;}.r{fill:#9d716e;}</style><clipPath id="b"><rect class="j" width="1024" height="1024" rx="256" ry="256"/></clipPath></defs><g class="s"><path class="n" d="m214.58,971.62s125.92,52.48,309.04,53.77c183.12,1.3,320.79-53.77,424.04-143.25,103.25-89.48,127.34-237.47,127.34-237.47V49.88H281.69L-108.93,138.73l10.32,261.57L214.58,971.62Z"/><path class="h" d="m651.68,768.56s-103.25,44.74-227.15,6.88c0,0-48.18,24.09-37.86,82.6,10.32,58.51,69.57,70.93,124.27,71.6s102.88.67,154.5-23.42c51.62-24.09,41.3-79.16,27.53-99.81-13.77-20.65-41.3-37.86-41.3-37.86Z"/><path class="q" d="m1025.47-7.12v1032.5h-405.08s86.35-9.02,134.53-29.67c48.18-20.65,178.97-92.92,199.62-123.9,20.65-30.97,44.74-127.34,44.74-127.34-17.21,17.21-68.83,30.97-68.83,30.97,44.74-37.86,44.74-106.69,51.62-127.34,6.88-20.65,10.32-209.94,10.32-209.94l-113.57-216.82s-51.62-41.3-79.16-68.83c-17.55-17.55-37.31-77.61-49.28-118.88-20.2,69.52-69.21,209.49-150.33,270.31-110.13,82.6-192.73,99.81-244.36,99.81l106.55-65.32c-5.33,2.17-176.35,72.41-237.34,85.97-61.95,13.77-137.67,13.77-137.67,13.77,0,0-48.18,120.46,17.21,295.98,65.39,175.52,175.52,237.47,175.52,237.47,0,0-65.39-6.88-89.48-20.65l70.66,74.41H-3.58V170.12L297.18-54,759.57-7.3l265.9.17Z"/><path class="k" d="m-3.59,560.14s25.44,194.65,83.95,263.48c58.51,68.83,110.13,113.57,141.11,127.34v19.73s107.03,35.38,158.32,42.22c51.62,6.88,96.37,10.32,96.37,10.32l-479.74,2.15v-465.24Z"/><path class="k" d="m947.66,878.69s-164.35,123.01-351.05,144.55c-178.97,20.65,277.45,2.15,277.45,2.15l73.6-146.7Z"/><path class="l" d="m985.52-12.7s17.21,37.86,17.21,75.72-8.6,252.97-8.6,252.97l-1.72,149.7-37.86-103.25s30.43-4.4,32.42-153.63c2-149.23-34.82-215.98-34.82-215.98l33.37-5.53Z"/><path class="p" d="m432.71-7.11s-190.59,135.52-245.66,169.94C131.98,197.24-3.59,307.95-3.59,307.95v-127.57s97.72-89.83,125.25-110.48C149.19,49.25,242.1-7.11,242.1-7.11h190.62Z"/><path class="r" d="m524.33,111.2s-144.55,168.64-244.36,216.82c-99.81,48.18-192.73,110.13-192.73,110.13l58.51-6.88s175.52-106.69,206.5-134.22c30.97-27.53,141.87-127.69,158.7-153.33,16.83-25.64,51.25-77.26,51.25-77.26l-37.86,44.74Z"/><path class="o" d="m759.57-7.3l-2.81,61.09s25.7,64.29,56.68,105.59c30.97,41.3,27.53,44.74,65.39,61.95,6.88,3.44-72.27-199.62-72.27-199.62l-42.95-75.72-4.03,46.7"/><path class="i" d="m1032.42,878.69s-95.08,103.25-139.83,123.9c-44.74,20.65-62.52,30.42-62.52,30.42l195.39-7.62,6.95-146.7Z"/><path class="m" d="m1025.47,151.54s-50.27,42.26-74.37,49.14c-24.09,6.88-72.27,30.97-72.27,30.97l17.21,34.42s51.62-13.77,75.72-27.53c24.09-13.77,53.72-34.21,53.72-34.21v-52.79Z"/><path class="m" d="m1025.47,276.42s-22.74,20.63-43.39,27.51c-20.65,6.88-61.95,20.65-61.95,20.65l6.88,30.97s37.86-3.44,58.51-10.32c20.65-6.88,39.95-18.96,39.95-18.96v-49.85Z"/><path class="e" d="m529.49-7.11s-60.22,135.52-139.38,200.91c-79.16,65.39-234.03,127.34-316.63,127.34S-3.59,293.28-3.59,293.28l-.08-71.85c142.54,48.08,232.02,13.66,232.02,13.66,0,0,86.04-99.81,106.69-144.55,20.65-44.74,52.22-97.66,52.22-97.66h142.23Z"/><path class="d" d="m240.63-7.11S111.33,73.34,83.8,97.43C56.27,121.52-3.59,174.51-3.59,174.51V33.75S40.71-8.41,58.81-7.11s181.82,0,181.82,0Z"/><path class="f" d="m58.81-7.11S12.27,1.05-3.59,33.75c-15.86,32.71-5.53-53.34-5.53-53.34l79.16-10.32-11.22,22.8Z"/><path class="c" d="m106.08,198.79c35.7-19.22,72.17-37.48,110.61-50.69,6.02-1.96,12.67-3.9,18.84-5.37,17.51-3.85,35.43-5.59,53.24-7.15,25.82-2.12,52-2.88,77.88-2.88,12.99.03,25.97.14,38.95.68v.4c-23.14,1.04-55,2.35-77.74,3.55-29.75,1.73-59.98,2.49-89.33,7.82-8.54,1.73-17.36,4.25-25.62,7.03-36.77,12.05-72.61,30.38-106.83,46.62h0Z"/><path class="g" d="m952.02,190.13c-32.81-17.16-66.05-34.2-100.97-46.6-5.82-1.93-11.74-3.73-17.65-4.53l-18.44-2.12c-35.32-4.05-70.68-7.98-106.13-10.08-10.55-.52-21.8-.72-32.39-.43-3.07.22-6.16.4-9.26.56l-.07-.49c24.49-4.56,49.68-3.72,74.43-2.24,30.74,2.02,61.8,7.24,92.36,11.21,18.56,3.54,35.52,11.94,52.52,19.66,22.38,10.72,44.25,22.4,65.83,34.62,0,0-.24.44-.24.44h0Z"/></g></svg>